<svg xmlns="http://www.w3.org/2000/svg" viewBox="0 0 21.49 26.19">
  <defs>
    <style>
      .cls-1 {
        fill: none;
        stroke: #000;
      }
    </style>
  </defs>
  <title>header-account</title>
  <g id="Calque_2" data-name="Calque 2">
    <g id="Calque_1-2" data-name="Calque 1">
      <g id="Tracé_51" data-name="Tracé 51">
        <path d="M10.74,12A9.75,9.75,0,0,0,1,21.74c0,1.22,1.69,2,2.7,2.4a21.49,21.49,0,0,0,7,1.05,21.45,21.45,0,0,0,7-1.05c1-.37,2.71-1.18,2.71-2.4A9.76,9.76,0,0,0,10.74,12m0-1A10.74,10.74,0,0,1,21.49,21.74c0,3-5.38,4.45-10.75,4.45S0,24.71,0,21.74A10.74,10.74,0,0,1,10.74,11Z"/>
      </g>
      <g id="Ellipse_28" data-name="Ellipse 28">
        <circle class="cls-1" cx="10.99" cy="5.5" r="5"/>
      </g>
    </g>
  </g>
</svg>
