<svg xmlns="http://www.w3.org/2000/svg" viewBox="0 0 2.54 1.72">
  <defs>
    <style>
      .cls-1 {
        fill: #36f;
      }

      .cls-2 {
        fill: #fff;
      }

      .cls-3 {
        fill: #f33;
      }
    </style>
  </defs>
  <title>header-lang-fr</title>
  <g id="Calque_2" data-name="Calque 2">
    <g id="Calque_1-2" data-name="Calque 1">
      <path d="M0,0H2.49a0,0,0,0,1,0,0V1.68a0,0,0,0,1,0,0H0a0,0,0,0,1,0,0V0A0,0,0,0,1,0,0ZM1.72.08V1.64h.73V.08ZM1.64,1.64V.08H.9V1.64Zm-.82,0V.08H.08V1.64Z"/>
      <rect id="_1" data-name="1" class="cls-1" x="0.08" y="0.08" width="0.74" height="1.55"/>
      <rect id="_2" data-name="2" class="cls-2" x="0.9" y="0.08" width="0.74" height="1.55"/>
      <rect id="_3" data-name="3" class="cls-3" x="1.72" y="0.08" width="0.74" height="1.55"/>
    </g>
  </g>
</svg>
