<?xml version="1.0" encoding="utf-8"?>
<!-- Generator: Adobe Illustrator 24.0.2, SVG Export Plug-In . SVG Version: 6.00 Build 0)  -->
<svg version="1.1" id="Calque_1" xmlns="http://www.w3.org/2000/svg" xmlns:xlink="http://www.w3.org/1999/xlink" x="0px" y="0px"
	 viewBox="0 0 28 28" style="enable-background:new 0 0 28 28;" xml:space="preserve">
<style type="text/css">
	.st0{fill:#666666;}
</style>
<title>ticket-clock</title>
<g id="Calque_2_1_">
	<g id="Calque_1-2">
		<path class="st0" d="M14,0C6.3,0,0,6.3,0,14s6.3,14,14,14s14-6.3,14-14S21.7,0,14,0z M14,26.1C7.3,26.1,1.9,20.7,1.9,14
			C1.9,7.3,7.3,1.9,14,1.9c6.7,0,12.1,5.4,12.1,12.1c0,0,0,0,0,0l0,0C26.1,20.7,20.7,26.1,14,26.1z"/>
		<path class="st0" d="M14,4.9c-0.5,0-0.9,0.4-0.9,0.9l0,0l0,0v7.2H7.5c-0.5,0-0.9,0.4-0.9,0.9c0,0.5,0.4,0.9,0.9,0.9c0,0,0,0,0,0
			H14c0.5,0,0.9-0.4,0.9-0.9c0,0,0,0,0,0V5.8C14.9,5.3,14.5,4.9,14,4.9L14,4.9z"/>
	</g>
</g>
</svg>
