<svg xmlns="http://www.w3.org/2000/svg" viewBox="0 0 95.68 87.98">
  <defs>
    <style>
      .cls-1 {
        fill: #f90;
      }

      .cls-2 {
        fill: #fff;
      }

      .cls-3 {
        fill: #333;
      }
    </style>
  </defs>
  <title>ticket-warning_2</title>
  <g id="Calque_2" data-name="Calque 2">
    <g id="Calque_1-2" data-name="Calque 1">
      <path class="cls-1" d="M94.37,73.38,54.76,4.05a8,8,0,0,0-13.91,0L1.32,73.22A9.84,9.84,0,0,0,9.84,88H85.92a9.73,9.73,0,0,0,8.45-14.6Zm-7,5.7a1.69,1.69,0,0,1-1.5.86H9.84a1.84,1.84,0,0,1-1.6-2.75v0L47.84,8,87.42,77.35A1.64,1.64,0,0,1,87.42,79.08Z"/>
      <path class="cls-2" d="M87.42,79.08a1.69,1.69,0,0,1-1.5.86H9.84a1.84,1.84,0,0,1-1.6-2.75v0L47.84,8,87.42,77.35A1.64,1.64,0,0,1,87.42,79.08Z"/>
      <path class="cls-3" d="M47.84,56a4,4,0,0,0,4-4V36a4,4,0,0,0-8,0V52A4,4,0,0,0,47.84,56Z"/>
      <circle class="cls-3" cx="47.8" cy="67.94" r="4"/>
    </g>
  </g>
</svg>
