<svg xmlns="http://www.w3.org/2000/svg" viewBox="0 0 32 20">
  <defs>
    <style>
      .cls-1 {
        fill: #36f;
      }

      .cls-2 {
        fill: #f33;
      }
    </style>
  </defs>
  <title>header-lang-en</title>
  <g id="Calque_2" data-name="Calque 2">
    <g id="Calque_1-2" data-name="Calque 1">
      <g>
        <polygon class="cls-1" points="12.5 0 5.5 0 12.5 3.9 12.5 0"/>
        <polygon class="cls-1" points="19.5 0 19.5 3.9 26.5 0 19.5 0"/>
        <polygon class="cls-1" points="0 4.1 0 6 3.4 6 0 4.1"/>
        <polygon class="cls-1" points="0 14 0 15.9 3.4 14 0 14"/>
        <polygon class="cls-1" points="12.5 20 12.5 16 5.4 20 12.5 20"/>
        <polygon class="cls-1" points="19.5 20 26.6 20 19.5 16 19.5 20"/>
        <polygon class="cls-1" points="32 6 32 4.1 28.6 6 32 6"/>
        <polygon class="cls-1" points="32 15.9 32 14 28.6 14 32 15.9"/>
        <polygon class="cls-2" points="12.1 6 1.4 0 0 0 0 1.8 7.5 6 12.1 6"/>
        <polygon class="cls-2" points="7.5 14 0 18.2 0 20 1.4 20 12 14 7.5 14"/>
        <polygon class="cls-2" points="20 14 30.6 20 32 20 32 18.2 24.5 14 20 14"/>
        <polygon class="cls-2" points="30.6 0 19.9 6 24.5 6 32 1.8 32 0 30.6 0"/>
        <polygon class="cls-2" points="18 0 14 0 14 8 0 8 0 12 14 12 14 20 18 20 18 12 32 12 32 8 18 8 18 0"/>
      </g>
      <path d="M31,1V19H1V1H31m1-1H0V20H32V0Z"/>
    </g>
  </g>
</svg>
