<svg xmlns="http://www.w3.org/2000/svg" viewBox="0 0 23.28 23.28">
  <defs>
    <style>
      .cls-1 {
        fill-rule: evenodd;
      }
    </style>
  </defs>
  <title>header-accessibility</title>
  <g id="Calque_2" data-name="Calque 2">
    <g id="Calque_1-2" data-name="Calque 1">
      <path class="cls-1" d="M11.64,0A2.38,2.38,0,1,1,9.26,2.38,2.39,2.39,0,0,1,11.64,0Zm0,.53a1.85,1.85,0,1,0,1.85,1.85A1.85,1.85,0,0,0,11.64.53ZM14,6.88a.23.23,0,0,1,.14,0L19,10a2.37,2.37,0,1,1-.47,1.41,2.39,2.39,0,0,1,.2-1L14,7.41h-.19V14L16,18.62a2.36,2.36,0,1,1-.49.2l-2.19-4.53H10l-2.2,4.53a2.37,2.37,0,1,1-1.15-.3,2.39,2.39,0,0,1,.66.1L9.53,14V7.41H9.34l-4.78,3A2.38,2.38,0,1,1,2.38,9a2.35,2.35,0,0,1,1.91,1L9.12,6.92a.23.23,0,0,1,.14,0Zm-.79.53H10.05v6.35h3.18ZM20.9,9.53a1.85,1.85,0,1,0,1.85,1.85A1.85,1.85,0,0,0,20.9,9.53Zm-18.52,0a1.85,1.85,0,1,0,1.85,1.85A1.85,1.85,0,0,0,2.38,9.53Zm14.29,9.52a1.85,1.85,0,1,0,1.85,1.85A1.85,1.85,0,0,0,16.67,19.05Zm-10.06,0A1.85,1.85,0,1,0,8.47,20.9,1.85,1.85,0,0,0,6.61,19.05Z"/>
    </g>
  </g>
</svg>
