<svg version="1" xmlns="http://www.w3.org/2000/svg" width="933.333" height="933.333" viewBox="0 0 700.000000 700.000000"><path d="M151.5 1c-2.7.4-7 1.1-9.5 1.4-8.1 1.3-16.3 3.4-26.6 7C73.1 24.2 40.9 52 18.7 92.9c-5.3 10-13.3 32.7-15.2 43.3-1.2 6.8-1.7 9.5-2.3 11.8-1 4.3-1.1 391.9-.1 399.5 1 7.7 2 14.4 2.3 16 .2.5.6 2.3 1 4 3.4 14.3 9.4 30.4 15.9 42.5 16.7 30.8 43.2 56.5 74.2 71.7 5.5 2.8 11.6 5.5 13.5 6.2 1.9.7 4.4 1.7 5.5 2.2 7 2.9 17.6 5.5 32.5 7.9 10.9 1.7 21.7 1.8 207 1.6 107.5-.1 196.6-.4 198-.8 1.4-.4 4.3-.9 6.5-1.2 2.2-.3 8.5-1.7 14-3.1 50.9-13.2 93.5-49.2 113.8-96.5 1.6-3.6 3.2-7.4 3.7-8.5 1.3-3.1 5.6-17.4 7-23.3 3.8-16.6 3.9-18.4 3.7-220.2-.2-107.5-.5-196.4-.9-197.5-.3-1.1-.9-4-1.3-6.5s-.9-5.4-1.2-6.5c-.2-1.1-.6-2.9-.8-4.1-.8-3.7-6.3-20.8-8-24.9-4.2-10.1-14.2-28.5-18-33.4-.7-.9-4.3-5.3-7.9-9.9-19.1-24-46.4-43.3-75.1-53.2-12.3-4.2-14.4-4.8-22.5-6.4-4.1-.8-9.1-1.8-11-2.3C548.4.3 158 0 151.5 1zM545 57.1c50.3 7.4 89.6 46.1 97.7 96.4.4 2.7.8 91.6.8 197.5 0 181.9-.1 193-1.8 200.9-9 41.6-37.8 73.5-78.7 87.1-1.9.6-8 2-13.5 3-9.6 1.8-18.4 1.9-200 1.9-196.6 0-189.8.1-207.2-3.5-8.8-1.8-24.7-9-35.8-16.2-8.4-5.5-24.5-21.3-30.2-29.8-8.1-12-15.9-30.3-17.8-41.5-.4-2.4-1-5.3-1.3-6.4-.4-1.1-.8-88.4-.9-194-.2-204.8-.4-198.2 4.5-214.5 11.3-37.5 41.4-67.2 78.4-77.5 15.5-4.4 11.2-4.3 209.8-4.3 115.1 0 192.1.3 196 .9z"/><path d="M196 167.4c-.1 3.7-.1 61-.1 64.3l.1 3.3h118l.2 149.7.3 149.8h42.2c28.5.1 42.4-.3 42.6-1 .2-.5.3-67.9.2-149.8V235h118.1v-34.8l-.1-34.7-160.7-.1H196v2z"/></svg>